<?xml version="1.0" encoding="UTF-8" standalone="no"?>
<!DOCTYPE svg PUBLIC "-//W3C//DTD SVG 1.1//EN"
 "http://www.w3.org/Graphics/SVG/1.1/DTD/svg11.dtd">
<!-- Generated by graphviz version 2.47.3 (20210619.1520)
 -->
<!-- Title: dependencies Pages: 1 -->
<svg width="1927pt" height="247pt"
 viewBox="0.00 0.00 1927.00 246.80" xmlns="http://www.w3.org/2000/svg" xmlns:xlink="http://www.w3.org/1999/xlink">
<g id="graph0" class="graph" transform="scale(1 1) rotate(0) translate(4 242.8)">
<title>dependencies</title>
<polygon fill="white" stroke="transparent" points="-4,4 -4,-242.8 1923,-242.8 1923,4 -4,4"/>
<text text-anchor="middle" x="959.5" y="-8.2" font-family="sans-serif" font-size="14.00">dependencies</text>
<g id="clust1" class="cluster">
<title>cluster_AppModule</title>
<polygon fill="none" stroke="black" stroke-dasharray="1,5" points="8,-32.8 8,-230.8 1911,-230.8 1911,-32.8 8,-32.8"/>
</g>
<g id="clust2" class="cluster">
<title>cluster_AppModule_declarations</title>
<polygon fill="none" stroke="black" points="168,-40.8 168,-92.8 1903,-92.8 1903,-40.8 168,-40.8"/>
</g>
<g id="clust13" class="cluster">
<title>cluster_AppModule_imports</title>
<polygon fill="none" stroke="black" points="16,-40.8 16,-92.8 160,-92.8 160,-40.8 16,-40.8"/>
</g>
<g id="clust15" class="cluster">
<title>cluster_AppModule_bootstrap</title>
<polygon fill="none" stroke="black" points="945,-170.8 945,-222.8 1069,-222.8 1069,-170.8 945,-170.8"/>
</g>
<!-- AppComponent -->
<g id="node1" class="node">
<title>AppComponent</title>
<polygon fill="#ffffb3" stroke="black" points="1894.94,-84.8 1789.06,-84.8 1789.06,-48.8 1894.94,-48.8 1894.94,-84.8"/>
<text text-anchor="middle" x="1842" y="-62.6" font-family="Times,serif" font-size="14.00">AppComponent</text>
</g>
<!-- AppModule -->
<g id="node11" class="node">
<title>AppModule</title>
<polygon fill="#8dd3c7" stroke="black" points="1048.66,-149.8 1045.66,-153.8 1024.66,-153.8 1021.66,-149.8 965.34,-149.8 965.34,-113.8 1048.66,-113.8 1048.66,-149.8"/>
<text text-anchor="middle" x="1007" y="-127.6" font-family="Times,serif" font-size="14.00">AppModule</text>
</g>
<!-- AppComponent&#45;&gt;AppModule -->
<g id="edge1" class="edge">
<title>AppComponent&#45;&gt;AppModule</title>
<path fill="none" stroke="black" d="M1842,-85.05C1842,-107.82 1842,-143.8 1842,-143.8 1842,-143.8 1058.69,-143.8 1058.69,-143.8"/>
<polygon fill="black" stroke="black" points="1058.69,-140.3 1048.69,-143.8 1058.69,-147.3 1058.69,-140.3"/>
</g>
<!-- DescriptionCardComponent -->
<g id="node2" class="node">
<title>DescriptionCardComponent</title>
<polygon fill="#ffffb3" stroke="black" points="1770.86,-84.8 1597.14,-84.8 1597.14,-48.8 1770.86,-48.8 1770.86,-84.8"/>
<text text-anchor="middle" x="1684" y="-62.6" font-family="Times,serif" font-size="14.00">DescriptionCardComponent</text>
</g>
<!-- DescriptionCardComponent&#45;&gt;AppModule -->
<g id="edge2" class="edge">
<title>DescriptionCardComponent&#45;&gt;AppModule</title>
<path fill="none" stroke="black" d="M1684,-85.08C1684,-106.12 1684,-137.8 1684,-137.8 1684,-137.8 1058.84,-137.8 1058.84,-137.8"/>
<polygon fill="black" stroke="black" points="1058.84,-134.3 1048.84,-137.8 1058.84,-141.3 1058.84,-134.3"/>
</g>
<!-- DirectorCardComponent -->
<g id="node3" class="node">
<title>DirectorCardComponent</title>
<polygon fill="#ffffb3" stroke="black" points="1578.68,-84.8 1423.32,-84.8 1423.32,-48.8 1578.68,-48.8 1578.68,-84.8"/>
<text text-anchor="middle" x="1501" y="-62.6" font-family="Times,serif" font-size="14.00">DirectorCardComponent</text>
</g>
<!-- DirectorCardComponent&#45;&gt;AppModule -->
<g id="edge3" class="edge">
<title>DirectorCardComponent&#45;&gt;AppModule</title>
<path fill="none" stroke="black" d="M1501,-84.91C1501,-104.14 1501,-131.8 1501,-131.8 1501,-131.8 1058.69,-131.8 1058.69,-131.8"/>
<polygon fill="black" stroke="black" points="1058.69,-128.3 1048.69,-131.8 1058.69,-135.3 1058.69,-128.3"/>
</g>
<!-- GenreCardComponent -->
<g id="node4" class="node">
<title>GenreCardComponent</title>
<polygon fill="#ffffb3" stroke="black" points="1405.24,-84.8 1262.76,-84.8 1262.76,-48.8 1405.24,-48.8 1405.24,-84.8"/>
<text text-anchor="middle" x="1334" y="-62.6" font-family="Times,serif" font-size="14.00">GenreCardComponent</text>
</g>
<!-- GenreCardComponent&#45;&gt;AppModule -->
<g id="edge4" class="edge">
<title>GenreCardComponent&#45;&gt;AppModule</title>
<path fill="none" stroke="black" d="M1334,-84.82C1334,-102.17 1334,-125.8 1334,-125.8 1334,-125.8 1058.75,-125.8 1058.75,-125.8"/>
<polygon fill="black" stroke="black" points="1058.75,-122.3 1048.75,-125.8 1058.75,-129.3 1058.75,-122.3"/>
</g>
<!-- MovieCardComponent -->
<g id="node5" class="node">
<title>MovieCardComponent</title>
<polygon fill="#ffffb3" stroke="black" points="1244.59,-84.8 1099.41,-84.8 1099.41,-48.8 1244.59,-48.8 1244.59,-84.8"/>
<text text-anchor="middle" x="1172" y="-62.6" font-family="Times,serif" font-size="14.00">MovieCardComponent</text>
</g>
<!-- MovieCardComponent&#45;&gt;AppModule -->
<g id="edge5" class="edge">
<title>MovieCardComponent&#45;&gt;AppModule</title>
<path fill="none" stroke="black" d="M1172,-85.04C1172,-100.37 1172,-119.8 1172,-119.8 1172,-119.8 1059.06,-119.8 1059.06,-119.8"/>
<polygon fill="black" stroke="black" points="1059.06,-116.3 1049.06,-119.8 1059.06,-123.3 1059.06,-116.3"/>
</g>
<!-- ProfileViewComponent -->
<g id="node6" class="node">
<title>ProfileViewComponent</title>
<polygon fill="#ffffb3" stroke="black" points="1081.75,-84.8 932.25,-84.8 932.25,-48.8 1081.75,-48.8 1081.75,-84.8"/>
<text text-anchor="middle" x="1007" y="-62.6" font-family="Times,serif" font-size="14.00">ProfileViewComponent</text>
</g>
<!-- ProfileViewComponent&#45;&gt;AppModule -->
<g id="edge6" class="edge">
<title>ProfileViewComponent&#45;&gt;AppModule</title>
<path fill="none" stroke="black" d="M1007,-84.91C1007,-84.91 1007,-103.79 1007,-103.79"/>
<polygon fill="black" stroke="black" points="1003.5,-103.79 1007,-113.79 1010.5,-103.79 1003.5,-103.79"/>
</g>
<!-- UpdateInfoComponent -->
<g id="node7" class="node">
<title>UpdateInfoComponent</title>
<polygon fill="#ffffb3" stroke="black" points="914.58,-84.8 769.42,-84.8 769.42,-48.8 914.58,-48.8 914.58,-84.8"/>
<text text-anchor="middle" x="842" y="-62.6" font-family="Times,serif" font-size="14.00">UpdateInfoComponent</text>
</g>
<!-- UpdateInfoComponent&#45;&gt;AppModule -->
<g id="edge7" class="edge">
<title>UpdateInfoComponent&#45;&gt;AppModule</title>
<path fill="none" stroke="black" d="M842,-85.04C842,-100.37 842,-119.8 842,-119.8 842,-119.8 954.94,-119.8 954.94,-119.8"/>
<polygon fill="black" stroke="black" points="954.94,-123.3 964.94,-119.8 954.94,-116.3 954.94,-123.3"/>
</g>
<!-- UserLoginFormComponent -->
<g id="node8" class="node">
<title>UserLoginFormComponent</title>
<polygon fill="#ffffb3" stroke="black" points="751.54,-84.8 580.46,-84.8 580.46,-48.8 751.54,-48.8 751.54,-84.8"/>
<text text-anchor="middle" x="666" y="-62.6" font-family="Times,serif" font-size="14.00">UserLoginFormComponent</text>
</g>
<!-- UserLoginFormComponent&#45;&gt;AppModule -->
<g id="edge8" class="edge">
<title>UserLoginFormComponent&#45;&gt;AppModule</title>
<path fill="none" stroke="black" d="M666,-84.82C666,-102.17 666,-125.8 666,-125.8 666,-125.8 955.19,-125.8 955.19,-125.8"/>
<polygon fill="black" stroke="black" points="955.19,-129.3 965.19,-125.8 955.19,-122.3 955.19,-129.3"/>
</g>
<!-- UserRegistrationFormComponent -->
<g id="node9" class="node">
<title>UserRegistrationFormComponent</title>
<polygon fill="#ffffb3" stroke="black" points="562.03,-84.8 355.97,-84.8 355.97,-48.8 562.03,-48.8 562.03,-84.8"/>
<text text-anchor="middle" x="459" y="-62.6" font-family="Times,serif" font-size="14.00">UserRegistrationFormComponent</text>
</g>
<!-- UserRegistrationFormComponent&#45;&gt;AppModule -->
<g id="edge9" class="edge">
<title>UserRegistrationFormComponent&#45;&gt;AppModule</title>
<path fill="none" stroke="black" d="M459,-84.91C459,-104.14 459,-131.8 459,-131.8 459,-131.8 954.91,-131.8 954.91,-131.8"/>
<polygon fill="black" stroke="black" points="954.91,-135.3 964.91,-131.8 954.91,-128.3 954.91,-135.3"/>
</g>
<!-- WelcomePageComponent -->
<g id="node10" class="node">
<title>WelcomePageComponent</title>
<polygon fill="#ffffb3" stroke="black" points="338.18,-84.8 175.82,-84.8 175.82,-48.8 338.18,-48.8 338.18,-84.8"/>
<text text-anchor="middle" x="257" y="-62.6" font-family="Times,serif" font-size="14.00">WelcomePageComponent</text>
</g>
<!-- WelcomePageComponent&#45;&gt;AppModule -->
<g id="edge10" class="edge">
<title>WelcomePageComponent&#45;&gt;AppModule</title>
<path fill="none" stroke="black" d="M257,-85.08C257,-106.12 257,-137.8 257,-137.8 257,-137.8 955.34,-137.8 955.34,-137.8"/>
<polygon fill="black" stroke="black" points="955.34,-141.3 965.34,-137.8 955.34,-134.3 955.34,-141.3"/>
</g>
<!-- AppComponent  -->
<g id="node13" class="node">
<title>AppComponent </title>
<polygon fill="#80b1d3" stroke="black" points="1061.44,-214.8 952.56,-214.8 952.56,-178.8 1061.44,-178.8 1061.44,-214.8"/>
<text text-anchor="middle" x="1007" y="-192.6" font-family="Times,serif" font-size="14.00">AppComponent </text>
</g>
<!-- AppModule&#45;&gt;AppComponent  -->
<g id="edge12" class="edge">
<title>AppModule&#45;&gt;AppComponent </title>
<path fill="none" stroke="black" stroke-dasharray="1,5" d="M1007,-149.91C1007,-149.91 1007,-168.79 1007,-168.79"/>
<polygon fill="black" stroke="black" points="1003.5,-168.79 1007,-178.79 1010.5,-168.79 1003.5,-168.79"/>
</g>
<!-- AppRoutingModule -->
<g id="node12" class="node">
<title>AppRoutingModule</title>
<polygon fill="#8dd3c7" stroke="black" points="152.27,-84.8 149.27,-88.8 128.27,-88.8 125.27,-84.8 23.73,-84.8 23.73,-48.8 152.27,-48.8 152.27,-84.8"/>
<text text-anchor="middle" x="88" y="-62.6" font-family="Times,serif" font-size="14.00">AppRoutingModule</text>
</g>
<!-- AppRoutingModule&#45;&gt;AppModule -->
<g id="edge11" class="edge">
<title>AppRoutingModule&#45;&gt;AppModule</title>
<path fill="none" stroke="black" d="M88,-85.05C88,-107.82 88,-143.8 88,-143.8 88,-143.8 955.12,-143.8 955.12,-143.8"/>
<polygon fill="black" stroke="black" points="955.12,-147.3 965.12,-143.8 955.12,-140.3 955.12,-147.3"/>
</g>
</g>
</svg>
